# xmcd CD database file
#
# Track frame offsets:
#	150
#	24475
#	40797
#	60235
#	78870
#	95980
#	116962
#	136105
#	156032
#	178392
#	201572
#
# Disc length: 2989 seconds
#
# Revision: 5
# Processed by: cddbd v1.5.2PL0 Copyright (c) Steve Scherf et al.
# Submitted via: CDex 1.70beta2
#
DISCID=950bab0b
DTITLE=Various J-POP - Noevir Cm Hit!
DYEAR=2003
DGENRE=JPop
TTITLE0=別れの朝(世良公則)
TTITLE1=恋のハレルヤ(荻野目洋子)
TTITLE2=愛が止まらない(西城秀樹)
TTITLE3=銃爪(坂本冬美)
TTITLE4=絶体絶命(宇崎竜童)
TTITLE5=カサブランカ・ダンディ(田村直美)
TTITLE6=ダンシング・オールナイト(マリーン)
TTITLE7=ミ・アモーレ(狩人)
TTITLE8=スローモーション(鈴木トオル)
TTITLE9=Heart Of Glass(桃姫BAND)
TTITLE10=Lovin' You(アン・ルイス)
EXTD=YEAR: 2003
EXTT0=
EXTT1=
EXTT2=
EXTT3=
EXTT4=
EXTT5=
EXTT6=
EXTT7=
EXTT8=
EXTT9=
EXTT10=
PLAYORDER=
